#!OML:ASF H:\Terrain\Patient Classification 1\Walking\liu\liu.ASF
:FULLY-SPECIFIED
:DEGREES
64
root 9.01958 16.3027 -18.6794 7.25058 0.637295 4.57095
lowerback -2.77289 -2.44702 -6.9288
upperback -0.389508 -3.07483 1.46494
thorax 1.59899 -1.5869 5.26948
lowerneck -21.5078 -2.65541 -11.1859
upperneck 20.0973 -2.92964 11.7658
head 10.3203 -0.820264 5.68275
rclavicle -2.93207e-015 -1.98785e-014
rhumerus -48.3717 16.3949 -90.0225
rradius 35.0498
rwrist -18.4881
rhand -32.9316 -26.4053
rfingers 7.12502
rthumb -6.14818 -56.2961
lclavicle -2.93207e-015 -1.98785e-014
lhumerus -21.1812 -28.2217 88.4229
lradius 33.9989
lwrist 8.77547
lhand -19.205 -28.2517
lfingers 7.12502
lthumb 7.10724 1.609
rfemur -41.061 2.22905 16.2958
rtibia 34.91
rfoot -20.5997 -6.22515
rtoes -17.0473
lfemur 3.38647 -0.286924 -28.6149
ltibia 10.5876
lfoot -17.9009 4.85576
ltoes -6.69269
65
root 9.01091 16.2889 -18.4466 7.42613 1.01087 5.21352
lowerback -3.11397 -2.69359 -7.50918
upperback -0.258168 -3.35031 1.22143
thorax 1.98524 -1.74545 5.3063
lowerneck -21.8662 -2.62774 -10.8325
upperneck 20.1822 -2.92909 11.5663
head 10.4088 -0.806355 5.55472
rclavicle 2.21645e-014 -1.98785e-015
rhumerus -48.9353 15.9095 -89.9239
rradius 35.0796
rwrist -18.9367
rhand -31.558 -27.189
rfingers 7.12502
rthumb -4.82193 -57.1141
lclavicle 2.21645e-014 -1.98785e-015
lhumerus -19.6335 -28.0091 87.3513
lradius 34.6982
lwrist 9.04254
lhand -18.4679 -28.2934
lfingers 7.12502
lthumb 7.8187 1.54199
rfemur -41.9907 3.7731 14.3712
rtibia 33.116
rfoot -21.1281 -6.94503
rtoes -18.1996
lfemur 6.296 -0.329084 -29.1785
ltibia 6.31925
lfoot -16.2762 4.69328
ltoes -6.99376
66
root 9.00277 16.2756 -18.2166 7.63982 1.51411 5.47412
lowerback -3.47195 -2.94717 -7.62409
upperback -0.202637 -3.6506 1.10532
thorax 2.28838 -1.90845 5.20927
lowerneck -21.6294 -2.63137 -10.9323
upperneck 19.9783 -2.9125 11.5786
head 10.2909 -0.81047 5.56759
rclavicle 2.63887e-014 6.75868e-015
rhumerus -49.6964 15.5104 -89.7982
rradius 35.0198
rwrist -18.9362
rhand -30.4714 -28.5632
rfingers 7.12502
rthumb -3.77271 -58.5096
lclavicle 2.63887e-014 6.75868e-015
lhumerus -18.2861 -28.2613 86.3768
lradius 35.7075
lwrist 10.5279
lhand -17.0026 -27.8786
lfingers 7.12502
lthumb 9.23282 1.89924
rfemur -43.0063 5.67054 12.5398
rtibia 31.6417
rfoot -22.0467 -8.20472
rtoes -18.2113
lfemur 10.2378 -0.458079 -29.3441
ltibia -1.90833e-014
lfoot -13.621 4.66427
ltoes -6.9294
67
root 8.99569 16.2467 -17.9829 7.82564 1.8872 5.57286
lowerback -3.71108 -3.15374 -7.71158
upperback -0.217332 -3.90392 1.14336
thorax 2.45367 -2.04174 5.26659
lowerneck -21.7412 -2.60698 -11.0882
upperneck 20.0832 -2.81937 11.5699
head 10.3389 -0.778645 5.61087
rclavicle 4.09496e-014 7.15625e-015
rhumerus -50.6266 15.3214 -89.6237
rradius 35.0932
rwrist -19.3062
rhand -29.2199 -30.2867
rfingers 7.12502
rthumb -2.56411 -60.251
lclavicle 4.09496e-014 7.15625e-015
lhumerus -16.8516 -28.8093 85.6066
lradius 36.2875
lwrist 11.8455
lhand -16.0898 -27.1743
lfingers 7.12502
lthumb 10.1135 2.5627
rfemur -44.1887 7.80969 10.6732
rtibia 30.5426
rfoot -22.899 -9.7187
rtoes -19.9971
lfemur 10.9716 -0.443162 -29.3001
ltibia -3.81667e-014
lfoot -14.0279 4.38745
ltoes -6.63276
68
root 8.99079 16.204 -17.7419 7.88093 2.08159 6.22178
lowerback -3.78191 -3.30575 -8.42349
upperback -0.197 -4.06601 1.02586
thorax 2.58084 -2.13533 5.52507
lowerneck -22.3397 -2.56518 -10.8546
upperneck 20.4098 -2.744 11.3419
head 10.5511 -0.738975 5.5175
rclavicle 5.72997e-014 6.75868e-015
rhumerus -51.4565 14.9401 -89.3486
rradius 35.109
rwrist -19.8487
rhand -28.6487 -30.2388
rfingers 7.12502
rthumb -2.01245 -60.209
lclavicle 5.72997e-014 6.75868e-015
lhumerus -15.4324 -29.1535 84.9148
lradius 36.5551
lwrist 12.1006
lhand -15.7131 -26.8625
lfingers 7.12502
lthumb 10.4769 2.85645
rfemur -45.2627 9.73959 8.21997
rtibia 29.6896
rfoot -23.496 -11.2173
rtoes -21.9659
lfemur 11.8174 -0.301058 -29.8509
ltibia 4.45278e-014
lfoot -14.2979 3.93054
ltoes -5.77555
